<?xml version="1.0" encoding="UTF-8" standalone="no"?>
<svg
   xmlns:osb="http://www.openswatchbook.org/uri/2009/osb"
   xmlns:dc="http://purl.org/dc/elements/1.1/"
   xmlns:cc="http://creativecommons.org/ns#"
   xmlns:rdf="http://www.w3.org/1999/02/22-rdf-syntax-ns#"
   xmlns:svg="http://www.w3.org/2000/svg"
   xmlns="http://www.w3.org/2000/svg"
   xmlns:xlink="http://www.w3.org/1999/xlink"
   xmlns:sodipodi="http://sodipodi.sourceforge.net/DTD/sodipodi-0.dtd"
   xmlns:inkscape="http://www.inkscape.org/namespaces/inkscape"
   inkscape:version="1.0.2 (e86c870879, 2021-01-15)"
   sodipodi:docname="hm-logo.svg"
   id="svg855"
   version="1.1"
   viewBox="0 0 105.73605 36.442352"
   height="36.442352mm"
   width="105.73605mm">
  <defs
     id="defs849">
    <linearGradient
       id="linearGradient1760"
       osb:paint="solid">
      <stop
         style="stop-color:#000000;stop-opacity:1;"
         offset="0"
         id="stop1758" />
    </linearGradient>
    <linearGradient
       id="linearGradient1744"
       osb:paint="solid">
      <stop
         style="stop-color:#000000;stop-opacity:1;"
         offset="0"
         id="stop1742" />
    </linearGradient>
    <linearGradient
       id="linearGradient1736"
       osb:paint="solid">
      <stop
         style="stop-color:#000000;stop-opacity:1;"
         offset="0"
         id="stop1734" />
    </linearGradient>
    <linearGradient
       id="linearGradient1726"
       osb:paint="solid">
      <stop
         style="stop-color:#000000;stop-opacity:1;"
         offset="0"
         id="stop1724" />
    </linearGradient>
    <linearGradient
       osb:paint="solid"
       id="linearGradient6060">
      <stop
         id="stop6058"
         offset="0"
         style="stop-color:#ffffff;stop-opacity:1;" />
    </linearGradient>
    <linearGradient
       gradientUnits="userSpaceOnUse"
       y2="477.80319"
       x2="601.18671"
       y1="477.80319"
       x1="151.49837"
       id="linearGradient6062"
       xlink:href="#linearGradient6060"
       inkscape:collect="always" />
    <linearGradient
       inkscape:collect="always"
       xlink:href="#linearGradient1726"
       id="linearGradient1728"
       x1="418.85541"
       y1="268.21939"
       x2="518.23041"
       y2="268.21939"
       gradientUnits="userSpaceOnUse"
       gradientTransform="matrix(1.4966141,0,0,1.4966141,-567.96723,-374.02457)" />
    <linearGradient
       inkscape:collect="always"
       xlink:href="#linearGradient1736"
       id="linearGradient1738"
       x1="440.53714"
       y1="267.55124"
       x2="443.98557"
       y2="267.55124"
       gradientUnits="userSpaceOnUse"
       gradientTransform="matrix(1.4966141,0,0,1.4966141,-568.03338,-374.02457)" />
    <linearGradient
       inkscape:collect="always"
       xlink:href="#linearGradient1744"
       id="linearGradient1746"
       x1="483.98276"
       y1="268.35446"
       x2="486.10941"
       y2="268.35446"
       gradientUnits="userSpaceOnUse"
       gradientTransform="matrix(1.4966141,0,0,1.4966141,-568.00857,-374.03284)" />
    <linearGradient
       inkscape:collect="always"
       xlink:href="#linearGradient1760"
       id="linearGradient1762"
       x1="578.38116"
       y1="322.22324"
       x2="589.64496"
       y2="322.22324"
       gradientUnits="userSpaceOnUse"
       gradientTransform="matrix(0.26458333,0,0,0.26458333,12.83614,-57.664172)" />
    <pattern
       y="0"
       x="0"
       height="6"
       width="6"
       patternUnits="userSpaceOnUse"
       id="EMFhbasepattern" />
  </defs>
  <sodipodi:namedview
     id="base"
     pagecolor="#ffffff"
     bordercolor="#666666"
     borderopacity="1.0"
     inkscape:pageopacity="0.0"
     inkscape:pageshadow="2"
     inkscape:zoom="2"
     inkscape:cx="366.99255"
     inkscape:cy="108.59933"
     inkscape:document-units="mm"
     inkscape:current-layer="layer1"
     showgrid="false"
     showguides="false"
     inkscape:document-rotation="0"
     inkscape:window-width="2560"
     inkscape:window-height="1343"
     inkscape:window-x="0"
     inkscape:window-y="0"
     inkscape:window-maximized="1" />
  <metadata
     id="metadata852">
    <rdf:RDF>
      <cc:Work
         rdf:about="">
        <dc:format>image/svg+xml</dc:format>
        <dc:type
           rdf:resource="http://purl.org/dc/dcmitype/StillImage" />
        <dc:title />
      </cc:Work>
    </rdf:RDF>
  </metadata>
  <g
     inkscape:label="Layer 1"
     inkscape:groupmode="layer"
     id="layer1"
     style="opacity:1"
     transform="translate(-10.987991,-9.4998831)">
    <path
       style="fill:#ffffff;fill-opacity:0;stroke:none;stroke-width:0.164392;stroke-linecap:round;stroke-linejoin:round;stroke-miterlimit:4;stroke-dasharray:0, 1.80831;stroke-dashoffset:2.65698;stroke-opacity:1"
       d="M 51.018538,81.949795 V 56.320276 h 74.363022 74.36301 V 81.949795 107.57929 H 125.38156 51.018538 Z m 46.909497,19.318155 c 7.650195,-0.83069 14.455685,-3.321219 19.455995,-7.120093 1.33715,-1.015885 1.46086,-1.196916 0.2806,-0.41064 -1.73967,1.158947 -4.29367,2.474292 -6.50091,3.348074 -7.40746,2.932359 -16.431716,3.942769 -25.2086,2.82251 -6.662476,-0.85039 -12.936539,-3.02066 -17.538447,-6.06675 -1.062451,-0.703273 -1.028919,-0.682874 -1.028919,-0.625659 0,0.114338 1.541864,1.268125 2.83214,2.119191 5.049919,3.330878 11.963794,5.515257 19.196148,6.064877 1.690065,0.12841 6.852666,0.0486 8.511993,-0.13155 z m 32.294395,-20.652358 0.0237,-16.99932 h -0.2341 -0.23409 v 16.961621 c 0,9.32889 0.0295,16.991138 0.0655,17.027218 0.0361,0.0361 0.13082,0.053 0.21047,0.0377 0.13002,-0.025 0.14722,-1.765358 0.16851,-17.027215 z m 56.59055,2.89975 c 1.19618,-2.635942 2.17483,-4.824201 2.17478,-4.862784 -5e-5,-0.03861 -0.33208,-0.07019 -0.73782,-0.07019 h -0.73772 l -0.90846,2.081221 c -1.22091,2.797006 -1.09903,2.562024 -1.20532,2.323793 -0.048,-0.107759 -0.1256,-0.195788 -0.17212,-0.195788 -0.0465,0 -0.0619,-0.03711 -0.0338,-0.08246 0.045,-0.07303 -1.35614,-3.977655 -1.46737,-4.088883 -0.0245,-0.02439 -0.5083,-0.03233 -1.07545,-0.01766 l -1.03113,0.02649 1.30882,3.531455 1.3088,3.531471 -0.80455,1.265822 c -0.44249,0.696194 -0.80454,1.285306 -0.80454,1.309148 0,0.02379 0.45251,0.04281 1.00555,0.04205 l 1.00554,-0.0012 2.17486,-4.792622 z M 67.668361,84.943023 v -2.619076 h 2.570847 2.570831 l 0.02477,2.595682 0.02477,2.595698 2.221551,0.02514 2.221536,0.02514 V 80.921 74.276376 l -2.221536,0.02514 -2.221551,0.02514 -0.02477,2.642451 -0.02477,2.642467 h -2.570863 -2.570847 v -2.66755 -2.667536 l -2.221535,0.02514 -2.221551,0.02514 -0.0243,6.500919 c -0.0142,3.5755 -0.0047,6.553523 0.02051,6.617832 0.03393,0.0889 0.571076,0.116879 2.245757,0.116879 h 2.201085 z m 23.478142,2.481386 c 0.07716,-0.04999 0.196565,-0.09938 0.265301,-0.109857 0.254744,-0.03861 0.8671,-0.516123 1.133695,-0.884139 0.520377,-0.718375 0.518547,-0.698785 0.518547,-5.556345 0,-4.367808 -0.0063,-4.501426 -0.19696,-4.915525 -0.287945,-0.622322 -0.727341,-1.075512 -1.32944,-1.371182 L 91.006191,74.32638 H 86.00189 80.997589 l -0.420918,0.220243 c -0.639797,0.334763 -1.19137,0.91907 -1.403967,1.487305 -0.176273,0.47112 -0.186199,0.733745 -0.186199,4.931658 0,2.902578 0.03282,4.454343 0.09499,4.492805 0.05223,0.03233 0.07164,0.09654 0.04324,0.142631 -0.05902,0.09534 0.242074,0.696928 0.490964,0.981254 0.323622,0.36971 0.886556,0.733087 1.318268,0.850946 0.539502,0.14727 9.984128,0.139033 10.212458,-0.009 z m 15.720457,-0.01341 c 0.92522,-0.274764 1.57216,-0.907262 1.82795,-1.787168 0.11393,-0.391737 0.13807,-0.879843 0.11408,-2.296388 -0.0297,-1.746894 -0.0379,-1.812819 -0.284,-2.279508 -0.13933,-0.264318 -0.42944,-0.631212 -0.64451,-0.815312 -0.65117,-0.557383 -0.98622,-0.620061 -3.30401,-0.618161 -2.41408,0.0015 -4.35545,-0.07977 -4.851889,-0.204438 -0.239928,-0.06017 -0.38218,-0.160871 -0.439144,-0.310696 -0.120082,-0.315846 -0.133337,-1.269219 -0.02162,-1.550028 0.209158,-0.525551 0.04892,-0.508251 4.992353,-0.53965 l 4.56911,-0.02904 v -1.353927 -1.353911 l -6.00984,0.02664 -6.009851,0.02664 -0.531439,0.260979 c -0.602099,0.295672 -1.041479,0.748861 -1.329424,1.371183 -0.180013,0.38903 -0.196976,0.590729 -0.196976,2.343218 0,1.752477 0.01688,1.954175 0.196976,2.343205 0.287945,0.622322 0.727325,1.075512 1.329424,1.371182 l 0.531439,0.260995 3.273861,0.02245 c 1.80061,0.01199 3.40271,0.0229 3.5602,0.02335 0.15788,4.78e-4 0.37822,0.0865 0.49108,0.191596 0.18059,0.168249 0.2047,0.287574 0.2047,1.012624 0,0.762511 -0.0175,0.838268 -0.24131,1.048663 l -0.24132,0.226767 -4.575902,0.02589 -4.575918,0.0259 v 1.291383 c 0,0.710249 0.02809,1.31943 0.06249,1.353733 0.03424,0.03427 2.657428,0.06241 5.82918,0.06241 5.03128,0 5.83155,-0.01931 6.27445,-0.150758 z m 12.90228,-5.134165 v -5.284976 h 2.38524 2.38523 v -1.356306 -1.356307 h -7.01539 -7.01537 v 1.356307 1.356306 h 2.38524 2.38521 v 5.28492 5.284917 h 2.24492 2.24492 z m 31.64897,3.411607 c 1.40981,-0.435455 2.2343,-1.544146 2.37228,-3.190064 0.1043,-1.243746 -0.26317,-2.341063 -1.04824,-3.130243 -0.70676,-0.710473 -1.30342,-0.916811 -2.66656,-0.922153 -0.98138,-0.0044 -1.12355,0.01826 -1.62173,0.25158 -1.39912,0.655458 -2.02628,1.717634 -2.02628,3.431826 0,1.395683 0.46299,2.44231 1.36779,3.092095 0.91095,0.654186 2.39656,0.845677 3.62274,0.466959 z m 9.0096,0.04969 c 1.43502,-0.426146 2.35607,-2.394957 2.09034,-4.468187 -0.13381,-1.044291 -0.32723,-1.506267 -0.88393,-2.111512 -0.59101,-0.642542 -1.59266,-0.906529 -2.55952,-0.674584 -0.5116,0.122717 -1.14154,0.594723 -1.43417,1.074599 -0.17359,0.284685 -0.17461,0.273461 -0.17495,-1.935197 v -2.221588 h -0.98216 -0.98215 v 5.140824 5.140826 l 0.82696,-0.0013 0.82694,-0.0013 0.15989,-0.335302 0.15988,-0.3353 0.26131,0.250339 c 0.58356,0.559088 1.73166,0.762808 2.69191,0.477644 z m 20.34147,0.0015 c 0.12009,-0.04789 0.15322,-0.193032 0.15322,-0.668597 v -0.607401 l -0.48069,0.05567 c -0.43547,0.05043 -0.50709,0.03113 -0.7613,-0.205156 -0.15432,-0.143372 -0.29892,-0.323912 -0.3213,-0.401019 -0.0224,-0.07708 -0.0582,-1.034638 -0.0795,-2.12787 l -0.0388,-1.987682 h 0.8044 0.80436 v -0.608001 -0.607999 h -0.79507 -0.79508 v -0.729719 -0.729704 l -0.95877,0.118236 c -0.5273,0.06495 -0.97233,0.119735 -0.98891,0.121676 -0.0166,0.0015 -0.0235,0.224492 -0.0158,0.494585 0.0224,0.745419 0.0331,0.72493 -0.37537,0.72493 h -0.37415 v 0.612101 c 0,0.43541 0.0336,0.607715 0.11693,0.596909 0.0644,-0.009 0.22937,-0.01042 0.36684,-0.0044 l 0.24992,0.01041 0.0308,2.268298 c 0.0271,1.998189 0.0514,2.3073 0.20531,2.595698 0.32807,0.615049 0.75954,0.960856 1.41551,1.134494 0.30655,0.08112 1.59115,0.04175 1.83701,-0.05643 z m -44.16324,-3.065754 c -0.005,-1.659131 -0.003,-3.269159 4.6e-4,-3.577835 l 0.008,-0.56123 0.24477,0.701536 c 0.13475,0.385843 0.26964,0.722581 0.30001,0.748308 0.0305,0.02574 0.0609,0.119135 0.0679,0.207535 0.008,0.08844 0.38085,1.23544 0.83106,2.548913 l 0.81859,2.388163 h 0.82009 0.8201 l 0.10162,-0.291361 c 0.0559,-0.160257 0.0808,-0.325035 0.0554,-0.366176 -0.0254,-0.04115 -0.008,-0.0889 0.0407,-0.106102 0.11724,-0.04221 1.51615,-4.005524 1.45107,-4.110809 -0.0281,-0.04565 -0.0142,-0.08306 0.0293,-0.08306 0.0772,0 0.39051,-0.770561 0.43413,-1.067743 0.0126,-0.07857 0.0503,-0.172126 0.086,-0.207909 0.0358,-0.03577 0.065,1.48 0.065,3.368413 v 3.433503 l 0.98216,-0.01499 0.98215,-0.01499 v -4.806601 -4.806587 h -1.20256 -1.20255 l -0.9608,2.722073 c -0.52843,1.497137 -0.96591,2.79147 -0.97221,2.876297 -0.006,0.08486 -0.045,0.179071 -0.0862,0.209421 -0.0412,0.03038 -0.0817,0.146071 -0.0901,0.257224 -0.009,0.111198 -0.0483,0.202058 -0.0888,0.202058 -0.0406,0 -0.0754,0.09474 -0.0778,0.210453 -0.003,0.171752 -0.0391,0.14413 -0.19434,-0.150095 -0.10462,-0.198301 -0.20725,-0.449104 -0.22808,-0.557324 -0.0208,-0.108201 -0.46537,-1.450773 -0.98781,-2.98344 l -0.94991,-2.786667 h -1.34341 -1.3434 v 4.817227 4.817227 h 0.79857 0.79855 l -0.008,-3.01662 z m 29.65178,-0.56123 V 78.58158 h -0.98215 -0.98215 v 3.531067 3.531081 h 0.98215 0.98215 z m 4.30262,-1.590152 v -5.12122 h -0.98215 -0.98215 l -8e-5,5.12122 -8e-5,5.121233 h 0.98209 0.98207 v -5.121292 z m 4.30292,1.590152 V 78.58158 h -0.98215 -0.98215 v 3.531067 3.531081 h 0.98215 0.98215 z m -8.60554,-5.495372 V 75.77543 h -0.98215 -0.98215 v 0.841845 0.841845 h 0.98215 0.98215 z m 8.60554,0 V 75.77543 h -0.98215 -0.98215 v 0.841845 0.841845 h 0.98215 0.98215 z m -37.81641,-6.94667 c 8.81114,-5.846732 22.77532,-7.977312 35.36383,-5.395638 5.1371,1.053542 10.22153,3.094489 13.95493,5.601692 1.26863,0.851963 0.56881,0.193274 -0.97929,-0.921704 -3.46634,-2.496563 -7.69111,-4.376489 -12.53413,-5.577358 -5.46789,-1.355813 -11.50676,-1.693493 -17.35138,-0.970254 -7.20804,0.891967 -13.94586,3.489535 -18.66184,7.194537 -1.27338,1.000397 -1.22184,1.017429 0.20788,0.06869 z"
       id="path1720"
       inkscape:connector-curvature="0" />
    <g
       id="g1800"
       transform="matrix(0.71094517,0,0,0.71094517,-30.885031,8.2437705)">
      <path
         inkscape:connector-curvature="0"
         id="path1722"
         d="M 58.897681,27.396339 V 1.7668207 h 74.363019 74.36301 v 25.6295183 25.6295 H 133.2607 58.897681 Z m 46.909499,19.31816 c 7.65019,-0.83069 14.45568,-3.32122 19.45599,-7.1201 1.33715,-1.01588 1.46086,-1.19691 0.2806,-0.41064 -1.73967,1.15895 -4.29367,2.47429 -6.50091,3.34808 -7.40746,2.93236 -16.43171,3.94277 -25.208597,2.82251 -6.662476,-0.85039 -12.936539,-3.02066 -17.538447,-6.06675 -1.062451,-0.70328 -1.028919,-0.68288 -1.028919,-0.62566 0,0.11434 1.541864,1.26812 2.83214,2.11919 5.049919,3.33088 11.963794,5.51526 19.196148,6.06488 1.690065,0.12841 6.852665,0.0486 8.511995,-0.13155 z m 32.29439,-20.65236 0.0237,-16.9993203 h -0.2341 -0.23409 V 26.024439 c 0,9.32889 0.0295,16.99114 0.0655,17.02722 0.0361,0.0361 0.13082,0.053 0.21047,0.0377 0.13002,-0.025 0.14722,-1.76536 0.16851,-17.02722 z m 56.59055,2.89975 c 1.19618,-2.63594 2.17483,-4.8242 2.17478,-4.86279 -5e-5,-0.0386 -0.33208,-0.0702 -0.73782,-0.0702 h -0.73772 l -0.90846,2.08122 c -1.22091,2.79701 -1.09903,2.56203 -1.20532,2.3238 -0.048,-0.10776 -0.1256,-0.19579 -0.17212,-0.19579 -0.0465,0 -0.0619,-0.0371 -0.0338,-0.0825 0.045,-0.073 -1.35614,-3.97766 -1.46737,-4.08888 -0.0245,-0.0244 -0.5083,-0.0323 -1.07545,-0.0177 l -1.03113,0.0265 1.30882,3.53145 1.3088,3.53147 -0.80455,1.26582 c -0.44249,0.6962 -0.80454,1.28531 -0.80454,1.30915 0,0.0238 0.45251,0.0428 1.00555,0.042 l 1.00554,-0.001 2.17486,-4.79262 z m -119.144616,1.42768 v -2.61908 h 2.570847 2.570831 l 0.02477,2.59568 0.02477,2.5957 2.221551,0.0251 2.221536,0.0251 v -6.6446 -6.64463 l -2.221536,0.0251 -2.221551,0.0251 -0.02477,2.64245 -0.02477,2.64247 h -2.570863 -2.570847 v -2.66755 -2.66754 l -2.221535,0.0251 -2.221551,0.0251 -0.0243,6.50092 c -0.0142,3.5755 -0.0047,6.55353 0.02051,6.61783 0.03393,0.0889 0.571076,0.11688 2.245757,0.11688 h 2.201085 z m 23.478142,2.48138 c 0.07716,-0.05 0.196565,-0.0994 0.265301,-0.10985 0.254744,-0.0386 0.867103,-0.51613 1.133693,-0.88414 0.52038,-0.71838 0.51855,-0.69879 0.51855,-5.55635 0,-4.3678 -0.006,-4.50142 -0.19696,-4.91552 -0.28795,-0.62232 -0.72734,-1.07551 -1.329441,-1.37118 l -0.531455,-0.26098 h -5.004301 -5.004301 l -0.420918,0.22024 c -0.639797,0.33476 -1.19137,0.91907 -1.403967,1.4873 -0.176273,0.47112 -0.186199,0.73375 -0.186199,4.93166 0,2.90258 0.03282,4.45434 0.09499,4.49281 0.05223,0.0323 0.07164,0.0965 0.04324,0.14263 -0.05902,0.0953 0.242074,0.69693 0.490964,0.98125 0.323622,0.36971 0.886556,0.73309 1.318268,0.85095 0.539502,0.14727 9.984128,0.13903 10.212458,-0.009 z m 15.720454,-0.0134 c 0.92522,-0.27476 1.57216,-0.90726 1.82795,-1.78716 0.11393,-0.39174 0.13807,-0.87985 0.11408,-2.29639 -0.0297,-1.7469 -0.0379,-1.81282 -0.284,-2.27951 -0.13933,-0.26432 -0.42944,-0.63121 -0.64451,-0.81531 -0.65117,-0.55738 -0.98622,-0.62006 -3.30401,-0.61816 -2.41408,0.002 -4.35545,-0.0798 -4.85189,-0.20444 -0.23992,-0.0602 -0.38218,-0.16087 -0.43914,-0.3107 -0.12008,-0.31584 -0.13334,-1.26922 -0.0216,-1.55002 0.20916,-0.52556 0.0489,-0.50826 4.99235,-0.53965 l 4.56911,-0.029 v -1.35393 -1.35391 l -6.00984,0.0266 -6.00985,0.0266 -0.53144,0.26098 c -0.6021,0.29567 -1.04148,0.74886 -1.32942,1.37118 -0.18001,0.38903 -0.19698,0.59073 -0.19698,2.34322 0,1.75247 0.0169,1.95417 0.19698,2.3432 0.28794,0.62232 0.72732,1.07551 1.32942,1.37118 l 0.53144,0.261 3.27386,0.0224 c 1.80061,0.012 3.4027,0.0229 3.5602,0.0234 0.15787,4.8e-4 0.37822,0.0865 0.49107,0.1916 0.1806,0.16824 0.20471,0.28757 0.20471,1.01262 0,0.76251 -0.0175,0.83827 -0.24132,1.04866 l -0.24131,0.22677 -4.5759,0.0259 -4.57592,0.0259 v 1.29138 c 0,0.71025 0.0281,1.31943 0.0625,1.35374 0.0342,0.0343 2.65743,0.0624 5.82918,0.0624 5.03128,0 5.83155,-0.0193 6.27445,-0.15076 z m 12.90228,-5.13416 v -5.28498 h 2.38524 2.38523 v -1.3563 -1.35631 h -7.01539 -7.01537 v 1.35631 1.3563 h 2.38524 2.38521 v 5.28492 5.28492 h 2.24492 2.24492 z m 31.64897,3.41161 c 1.40981,-0.43546 2.2343,-1.54415 2.37228,-3.19007 0.1043,-1.24374 -0.26317,-2.34106 -1.04824,-3.13024 -0.70676,-0.71047 -1.30342,-0.91681 -2.66656,-0.92215 -0.98138,-0.004 -1.12355,0.0183 -1.62173,0.25158 -1.39912,0.65545 -2.02628,1.71763 -2.02628,3.43182 0,1.39569 0.46299,2.44231 1.36779,3.0921 0.91095,0.65418 2.39656,0.84567 3.62274,0.46696 z m 9.0096,0.0497 c 1.43502,-0.42615 2.35607,-2.39496 2.09034,-4.46819 -0.13381,-1.04429 -0.32723,-1.50627 -0.88393,-2.11151 -0.59101,-0.64254 -1.59266,-0.90653 -2.55952,-0.67459 -0.5116,0.12272 -1.14154,0.59473 -1.43417,1.0746 -0.17359,0.28469 -0.17461,0.27346 -0.17495,-1.93519 v -2.22161 h -0.98216 -0.98215 v 5.14082 5.14083 l 0.82696,-0.001 0.82694,-10e-4 0.15989,-0.3353 0.15988,-0.3353 0.26131,0.25033 c 0.58356,0.55909 1.73166,0.76281 2.69191,0.47765 z m 20.34147,0.001 c 0.12009,-0.0479 0.15322,-0.19304 0.15322,-0.6686 v -0.6074 l -0.48069,0.0557 c -0.43547,0.0504 -0.50709,0.0311 -0.7613,-0.20516 -0.15432,-0.14337 -0.29892,-0.32391 -0.3213,-0.40102 -0.0224,-0.0771 -0.0582,-1.03463 -0.0795,-2.12787 l -0.0388,-1.98768 h 0.8044 0.80436 v -0.608 -0.608 h -0.79507 -0.79508 v -0.72972 -0.7297 l -0.95877,0.11823 c -0.5273,0.0649 -0.97233,0.11974 -0.98891,0.12168 -0.0166,0.001 -0.0235,0.22449 -0.0158,0.49459 0.0224,0.74541 0.0331,0.72493 -0.37537,0.72493 h -0.37415 v 0.6121 c 0,0.43541 0.0336,0.60771 0.11693,0.59691 0.0644,-0.009 0.22937,-0.0104 0.36684,-0.004 l 0.24992,0.0104 0.0308,2.26829 c 0.0271,1.99819 0.0514,2.3073 0.20531,2.5957 0.32807,0.61505 0.75954,0.96086 1.41551,1.1345 0.30655,0.0811 1.59115,0.0417 1.83701,-0.0564 z m -44.16324,-3.06576 c -0.005,-1.65913 -0.003,-3.26916 4.6e-4,-3.57783 l 0.008,-0.56123 0.24477,0.70153 c 0.13475,0.38585 0.26964,0.72258 0.30001,0.74831 0.0305,0.0257 0.0609,0.11914 0.0679,0.20754 0.008,0.0884 0.38085,1.23544 0.83106,2.54891 l 0.81859,2.38816 h 0.82009 0.8201 l 0.10162,-0.29136 c 0.0559,-0.16026 0.0808,-0.32503 0.0554,-0.36617 -0.0254,-0.0412 -0.008,-0.0889 0.0407,-0.10611 0.11724,-0.0422 1.51615,-4.00552 1.45107,-4.11081 -0.0281,-0.0456 -0.0142,-0.0831 0.0293,-0.0831 0.0772,0 0.39051,-0.77056 0.43413,-1.06774 0.0126,-0.0786 0.0503,-0.17212 0.086,-0.20791 0.0358,-0.0358 0.065,1.48 0.065,3.36842 v 3.4335 l 0.98216,-0.015 0.98215,-0.015 v -4.8066 -4.80659 h -1.20256 -1.20255 l -0.9608,2.72207 c -0.52843,1.49714 -0.96591,2.79147 -0.97221,2.8763 -0.006,0.0849 -0.045,0.17907 -0.0862,0.20942 -0.0412,0.0304 -0.0817,0.14607 -0.0901,0.25723 -0.009,0.11119 -0.0483,0.20205 -0.0888,0.20205 -0.0406,0 -0.0754,0.0947 -0.0778,0.21046 -0.003,0.17175 -0.0391,0.14413 -0.19434,-0.1501 -0.10462,-0.1983 -0.20725,-0.4491 -0.22808,-0.55732 -0.0208,-0.1082 -0.46537,-1.45078 -0.98781,-2.98344 l -0.94991,-2.78667 h -1.34341 -1.3434 v 4.81723 4.81722 h 0.79857 0.79855 l -0.008,-3.01662 z m 29.65178,-0.56123 v -3.53106 h -0.98215 -0.98215 v 3.53106 3.53108 h 0.98215 0.98215 z m 4.30262,-1.59015 v -5.12122 h -0.98215 -0.98215 l -8e-5,5.12122 -8e-5,5.12123 h 0.98209 0.98207 v -5.12129 z m 4.30292,1.59015 v -3.53106 h -0.98215 -0.98215 v 3.53106 3.53108 h 0.98215 0.98215 z m -8.60554,-5.49537 v -0.84184 h -0.98215 -0.98215 v 0.84184 0.84185 h 0.98215 0.98215 z m 8.60554,0 v -0.84184 h -0.98215 -0.98215 v 0.84184 0.84185 h 0.98215 0.98215 z m -37.81641,-6.94667 c 8.81114,-5.8467303 22.77532,-7.9773103 35.36383,-5.3956403 5.1371,1.0535403 10.22153,3.0944903 13.95493,5.6016903 1.26863,0.85197 0.56881,0.19328 -0.97929,-0.9217 -3.46634,-2.49656 -7.69111,-4.37649 -12.53413,-5.5773603 -5.46789,-1.35581 -11.50676,-1.69349 -17.35138,-0.97025 -7.20804,0.89197 -13.94586,3.4895303 -18.66184,7.1945403 -1.27338,1.00039 -1.22184,1.01742 0.20788,0.0687 z"
         style="fill:url(#linearGradient1728);fill-opacity:1;stroke:none;stroke-width:0.164392;stroke-linecap:round;stroke-linejoin:round;stroke-miterlimit:4;stroke-dasharray:0, 1.80831;stroke-dashoffset:2.65698;stroke-opacity:1" />
      <path
         inkscape:connector-curvature="0"
         id="path1732"
         d="m 95.391119,30.344444 c -0.02083,-0.02066 -0.853924,-0.04519 -1.851521,-0.05447 l -1.813824,-0.01676 -0.221182,-0.262879 -0.221181,-0.262866 -0.0013,-3.390669 -0.0013,-3.39067 0.240101,-0.240281 c 0.238618,-0.238815 0.251068,-0.240475 2.030935,-0.271171 2.032307,-0.03502 2.319021,-0.0015 2.651606,0.306312 l 0.237687,0.220287 6e-4,3.190197 c 6.15e-4,3.227747 -0.03266,3.794845 -0.227336,3.875722 -0.05933,0.0247 -0.260236,0.109999 -0.446623,0.189845 -0.186388,0.07976 -0.355844,0.128114 -0.376579,0.107458 z"
         style="fill:url(#linearGradient1738);fill-opacity:1;stroke:none;stroke-width:0.164392;stroke-linecap:round;stroke-linejoin:round;stroke-miterlimit:4;stroke-dasharray:0, 1.80831;stroke-dashoffset:2.65698;stroke-opacity:1" />
      <path
         inkscape:connector-curvature="0"
         id="path1740"
         d="m 157.65627,30.001607 c -0.1672,-0.03547 -0.30401,-0.04085 -0.30401,-0.01199 0,0.02889 -0.12971,-0.07125 -0.28828,-0.222277 -0.23906,-0.227829 -0.51149,-0.679029 -0.60356,-0.999648 -0.011,-0.03861 -0.0286,-0.08066 -0.0391,-0.09354 -0.14406,-0.178353 -0.11614,-1.96522 0.0346,-2.209048 0.0361,-0.05837 0.0394,-0.148169 0.008,-0.199559 -0.0317,-0.05149 -0.0227,-0.09354 0.02,-0.09354 0.0428,0 0.15874,-0.150331 0.25771,-0.334074 0.29934,-0.555843 0.61933,-0.722073 1.3058,-0.678355 0.51217,0.03263 0.62181,0.07393 0.83428,0.314528 0.1346,0.15232 0.29593,0.413769 0.35867,0.58097 0.0626,0.167202 0.13728,0.304007 0.16543,0.304007 0.1387,0 0.13918,1.77922 5.2e-4,2.33846 -0.0702,0.282951 -0.12276,0.535503 -0.11692,0.56123 0.006,0.02574 -0.15385,0.208897 -0.35511,0.407065 -0.20115,0.198151 -0.36575,0.339387 -0.36575,0.31384 0,-0.02559 -0.13681,-0.01662 -0.30399,0.0199 -0.1672,0.03651 -0.4408,0.03741 -0.608,0.0015 z"
         style="fill:url(#linearGradient1746);fill-opacity:1;stroke:none;stroke-width:0.164392;stroke-linecap:round;stroke-linejoin:round;stroke-miterlimit:4;stroke-dasharray:0, 1.80831;stroke-dashoffset:2.65698;stroke-opacity:1" />
      <path
         inkscape:connector-curvature="0"
         id="path1756"
         d="m 166.51453,29.696381 c -0.65033,-0.414504 -0.65873,-0.440163 -0.64567,-1.970815 0.0133,-1.560142 0.0383,-1.631312 0.74878,-2.133788 0.4433,-0.313515 1.01716,-0.375415 1.43036,-0.154281 0.49924,0.267189 0.88693,1.378506 0.78075,2.238068 -0.0966,0.781838 -0.1017,0.808035 -0.18381,0.940885 -0.0413,0.06683 -0.0524,0.144243 -0.0246,0.172027 0.11807,0.118065 -0.80165,1.056616 -1.04976,1.07126 -0.63809,0.03767 -0.77356,0.01672 -1.05607,-0.163356 z"
         style="fill:url(#linearGradient1762);fill-opacity:1;stroke:none;stroke-width:0.164402;stroke-linecap:round;stroke-linejoin:round;stroke-miterlimit:4;stroke-dasharray:0, 1.80843;stroke-dashoffset:2.65698;stroke-opacity:1" />
    </g>
  </g>
</svg>
