<?xml version="1.0" encoding="UTF-8" standalone="no"?>
<!-- Created with Inkscape (http://www.inkscape.org/) -->

<svg
   width="87.191254mm"
   height="27.257513mm"
   viewBox="0 0 87.191254 27.257513"
   version="1.1"
   id="svg855"
   sodipodi:docname="HM-logo BLACK.svg"
   inkscape:version="1.2.2 (732a01da63, 2022-12-09)"
   xmlns:inkscape="http://www.inkscape.org/namespaces/inkscape"
   xmlns:sodipodi="http://sodipodi.sourceforge.net/DTD/sodipodi-0.dtd"
   xmlns="http://www.w3.org/2000/svg"
   xmlns:svg="http://www.w3.org/2000/svg"
   xmlns:rdf="http://www.w3.org/1999/02/22-rdf-syntax-ns#"
   xmlns:cc="http://creativecommons.org/ns#"
   xmlns:dc="http://purl.org/dc/elements/1.1/">
  <defs
     id="defs849" />
  <sodipodi:namedview
     id="base"
     pagecolor="#ffffff"
     bordercolor="#666666"
     borderopacity="1.0"
     inkscape:pageopacity="0"
     inkscape:pageshadow="2"
     inkscape:zoom="2"
     inkscape:cx="198.25"
     inkscape:cy="10.25"
     inkscape:document-units="mm"
     inkscape:current-layer="layer1"
     showgrid="false"
     showguides="false"
     inkscape:showpageshadow="2"
     inkscape:pagecheckerboard="true"
     inkscape:deskcolor="#d1d1d1"
     inkscape:window-width="2025"
     inkscape:window-height="1230"
     inkscape:window-x="721"
     inkscape:window-y="75"
     inkscape:window-maximized="0"
     showborder="false">
    <sodipodi:guide
       position="0,27.257513"
       orientation="0,329.54175"
       id="guide4809"
       inkscape:locked="false" />
    <sodipodi:guide
       position="87.191253,27.257513"
       orientation="103.02052,0"
       id="guide4811"
       inkscape:locked="false" />
    <sodipodi:guide
       position="87.191253,0"
       orientation="0,-329.54175"
       id="guide4813"
       inkscape:locked="false" />
    <sodipodi:guide
       position="0,0"
       orientation="-103.02052,0"
       id="guide4815"
       inkscape:locked="false" />
  </sodipodi:namedview>
  <metadata
     id="metadata852">
    <rdf:RDF>
      <cc:Work
         rdf:about="">
        <dc:format>image/svg+xml</dc:format>
        <dc:type
           rdf:resource="http://purl.org/dc/dcmitype/StillImage" />
      </cc:Work>
    </rdf:RDF>
  </metadata>
  <g
     inkscape:label="Layer 1"
     inkscape:groupmode="layer"
     id="layer1"
     style="display:inline;opacity:1"
     transform="translate(-64.359895,-111.5889)">
    <path
       style="fill:#ffffff;fill-opacity:0;stroke:none;stroke-width:0.164392;stroke-linecap:round;stroke-linejoin:round;stroke-miterlimit:4;stroke-dasharray:0, 1.80831;stroke-dashoffset:2.65698;stroke-opacity:1"
       d="M 51.018538,81.949795 V 56.320276 h 74.363022 74.36301 V 81.949795 107.57929 H 125.38156 51.018538 Z m 46.909497,19.318155 c 7.650195,-0.83069 14.455685,-3.321219 19.455995,-7.120093 1.33715,-1.015885 1.46086,-1.196916 0.2806,-0.41064 -1.73967,1.158947 -4.29367,2.474292 -6.50091,3.348074 -7.40746,2.932359 -16.431716,3.942769 -25.2086,2.82251 -6.662476,-0.85039 -12.936539,-3.02066 -17.538447,-6.06675 -1.062451,-0.703273 -1.028919,-0.682874 -1.028919,-0.625659 0,0.114338 1.541864,1.268125 2.83214,2.119191 5.049919,3.330878 11.963794,5.515257 19.196148,6.064877 1.690065,0.12841 6.852666,0.0486 8.511993,-0.13155 z m 32.294395,-20.652358 0.0237,-16.99932 h -0.2341 -0.23409 v 16.961621 c 0,9.32889 0.0295,16.991138 0.0655,17.027218 0.0361,0.0361 0.13082,0.053 0.21047,0.0377 0.13002,-0.025 0.14722,-1.765358 0.16851,-17.027215 z m 56.59055,2.89975 c 1.19618,-2.635942 2.17483,-4.824201 2.17478,-4.862784 -5e-5,-0.03861 -0.33208,-0.07019 -0.73782,-0.07019 h -0.73772 l -0.90846,2.081221 c -1.22091,2.797006 -1.09903,2.562024 -1.20532,2.323793 -0.048,-0.107759 -0.1256,-0.195788 -0.17212,-0.195788 -0.0465,0 -0.0619,-0.03711 -0.0338,-0.08246 0.045,-0.07303 -1.35614,-3.977655 -1.46737,-4.088883 -0.0245,-0.02439 -0.5083,-0.03233 -1.07545,-0.01766 l -1.03113,0.02649 1.30882,3.531455 1.3088,3.531471 -0.80455,1.265822 c -0.44249,0.696194 -0.80454,1.285306 -0.80454,1.309148 0,0.02379 0.45251,0.04281 1.00555,0.04205 l 1.00554,-0.0012 2.17486,-4.792622 z M 67.668361,84.943023 v -2.619076 h 2.570847 2.570831 l 0.02477,2.595682 0.02477,2.595698 2.221551,0.02514 2.221536,0.02514 V 80.921 74.276376 l -2.221536,0.02514 -2.221551,0.02514 -0.02477,2.642451 -0.02477,2.642467 h -2.570863 -2.570847 v -2.66755 -2.667536 l -2.221535,0.02514 -2.221551,0.02514 -0.0243,6.500919 c -0.0142,3.5755 -0.0047,6.553523 0.02051,6.617832 0.03393,0.0889 0.571076,0.116879 2.245757,0.116879 h 2.201085 z m 23.478142,2.481386 c 0.07716,-0.04999 0.196565,-0.09938 0.265301,-0.109857 0.254744,-0.03861 0.8671,-0.516123 1.133695,-0.884139 0.520377,-0.718375 0.518547,-0.698785 0.518547,-5.556345 0,-4.367808 -0.0063,-4.501426 -0.19696,-4.915525 -0.287945,-0.622322 -0.727341,-1.075512 -1.32944,-1.371182 L 91.006191,74.32638 H 86.00189 80.997589 l -0.420918,0.220243 c -0.639797,0.334763 -1.19137,0.91907 -1.403967,1.487305 -0.176273,0.47112 -0.186199,0.733745 -0.186199,4.931658 0,2.902578 0.03282,4.454343 0.09499,4.492805 0.05223,0.03233 0.07164,0.09654 0.04324,0.142631 -0.05902,0.09534 0.242074,0.696928 0.490964,0.981254 0.323622,0.36971 0.886556,0.733087 1.318268,0.850946 0.539502,0.14727 9.984128,0.139033 10.212458,-0.009 z m 15.720457,-0.01341 c 0.92522,-0.274764 1.57216,-0.907262 1.82795,-1.787168 0.11393,-0.391737 0.13807,-0.879843 0.11408,-2.296388 -0.0297,-1.746894 -0.0379,-1.812819 -0.284,-2.279508 -0.13933,-0.264318 -0.42944,-0.631212 -0.64451,-0.815312 -0.65117,-0.557383 -0.98622,-0.620061 -3.30401,-0.618161 -2.41408,0.0015 -4.35545,-0.07977 -4.851889,-0.204438 -0.239928,-0.06017 -0.38218,-0.160871 -0.439144,-0.310696 -0.120082,-0.315846 -0.133337,-1.269219 -0.02162,-1.550028 0.209158,-0.525551 0.04892,-0.508251 4.992353,-0.53965 l 4.56911,-0.02904 v -1.353927 -1.353911 l -6.00984,0.02664 -6.009851,0.02664 -0.531439,0.260979 c -0.602099,0.295672 -1.041479,0.748861 -1.329424,1.371183 -0.180013,0.38903 -0.196976,0.590729 -0.196976,2.343218 0,1.752477 0.01688,1.954175 0.196976,2.343205 0.287945,0.622322 0.727325,1.075512 1.329424,1.371182 l 0.531439,0.260995 3.273861,0.02245 c 1.80061,0.01199 3.40271,0.0229 3.5602,0.02335 0.15788,4.78e-4 0.37822,0.0865 0.49108,0.191596 0.18059,0.168249 0.2047,0.287574 0.2047,1.012624 0,0.762511 -0.0175,0.838268 -0.24131,1.048663 l -0.24132,0.226767 -4.575902,0.02589 -4.575918,0.0259 v 1.291383 c 0,0.710249 0.02809,1.31943 0.06249,1.353733 0.03424,0.03427 2.657428,0.06241 5.82918,0.06241 5.03128,0 5.83155,-0.01931 6.27445,-0.150758 z m 12.90228,-5.134165 v -5.284976 h 2.38524 2.38523 v -1.356306 -1.356307 h -7.01539 -7.01537 v 1.356307 1.356306 h 2.38524 2.38521 v 5.28492 5.284917 h 2.24492 2.24492 z m 31.64897,3.411607 c 1.40981,-0.435455 2.2343,-1.544146 2.37228,-3.190064 0.1043,-1.243746 -0.26317,-2.341063 -1.04824,-3.130243 -0.70676,-0.710473 -1.30342,-0.916811 -2.66656,-0.922153 -0.98138,-0.0044 -1.12355,0.01826 -1.62173,0.25158 -1.39912,0.655458 -2.02628,1.717634 -2.02628,3.431826 0,1.395683 0.46299,2.44231 1.36779,3.092095 0.91095,0.654186 2.39656,0.845677 3.62274,0.466959 z m 9.0096,0.04969 c 1.43502,-0.426146 2.35607,-2.394957 2.09034,-4.468187 -0.13381,-1.044291 -0.32723,-1.506267 -0.88393,-2.111512 -0.59101,-0.642542 -1.59266,-0.906529 -2.55952,-0.674584 -0.5116,0.122717 -1.14154,0.594723 -1.43417,1.074599 -0.17359,0.284685 -0.17461,0.273461 -0.17495,-1.935197 v -2.221588 h -0.98216 -0.98215 v 5.140824 5.140826 l 0.82696,-0.0013 0.82694,-0.0013 0.15989,-0.335302 0.15988,-0.3353 0.26131,0.250339 c 0.58356,0.559088 1.73166,0.762808 2.69191,0.477644 z m 20.34147,0.0015 c 0.12009,-0.04789 0.15322,-0.193032 0.15322,-0.668597 v -0.607401 l -0.48069,0.05567 c -0.43547,0.05043 -0.50709,0.03113 -0.7613,-0.205156 -0.15432,-0.143372 -0.29892,-0.323912 -0.3213,-0.401019 -0.0224,-0.07708 -0.0582,-1.034638 -0.0795,-2.12787 l -0.0388,-1.987682 h 0.8044 0.80436 v -0.608001 -0.607999 h -0.79507 -0.79508 v -0.729719 -0.729704 l -0.95877,0.118236 c -0.5273,0.06495 -0.97233,0.119735 -0.98891,0.121676 -0.0166,0.0015 -0.0235,0.224492 -0.0158,0.494585 0.0224,0.745419 0.0331,0.72493 -0.37537,0.72493 h -0.37415 v 0.612101 c 0,0.43541 0.0336,0.607715 0.11693,0.596909 0.0644,-0.009 0.22937,-0.01042 0.36684,-0.0044 l 0.24992,0.01041 0.0308,2.268298 c 0.0271,1.998189 0.0514,2.3073 0.20531,2.595698 0.32807,0.615049 0.75954,0.960856 1.41551,1.134494 0.30655,0.08112 1.59115,0.04175 1.83701,-0.05643 z m -44.16324,-3.065754 c -0.005,-1.659131 -0.003,-3.269159 4.6e-4,-3.577835 l 0.008,-0.56123 0.24477,0.701536 c 0.13475,0.385843 0.26964,0.722581 0.30001,0.748308 0.0305,0.02574 0.0609,0.119135 0.0679,0.207535 0.008,0.08844 0.38085,1.23544 0.83106,2.548913 l 0.81859,2.388163 h 0.82009 0.8201 l 0.10162,-0.291361 c 0.0559,-0.160257 0.0808,-0.325035 0.0554,-0.366176 -0.0254,-0.04115 -0.008,-0.0889 0.0407,-0.106102 0.11724,-0.04221 1.51615,-4.005524 1.45107,-4.110809 -0.0281,-0.04565 -0.0142,-0.08306 0.0293,-0.08306 0.0772,0 0.39051,-0.770561 0.43413,-1.067743 0.0126,-0.07857 0.0503,-0.172126 0.086,-0.207909 0.0358,-0.03577 0.065,1.48 0.065,3.368413 v 3.433503 l 0.98216,-0.01499 0.98215,-0.01499 v -4.806601 -4.806587 h -1.20256 -1.20255 l -0.9608,2.722073 c -0.52843,1.497137 -0.96591,2.79147 -0.97221,2.876297 -0.006,0.08486 -0.045,0.179071 -0.0862,0.209421 -0.0412,0.03038 -0.0817,0.146071 -0.0901,0.257224 -0.009,0.111198 -0.0483,0.202058 -0.0888,0.202058 -0.0406,0 -0.0754,0.09474 -0.0778,0.210453 -0.003,0.171752 -0.0391,0.14413 -0.19434,-0.150095 -0.10462,-0.198301 -0.20725,-0.449104 -0.22808,-0.557324 -0.0208,-0.108201 -0.46537,-1.450773 -0.98781,-2.98344 l -0.94991,-2.786667 h -1.34341 -1.3434 v 4.817227 4.817227 h 0.79857 0.79855 l -0.008,-3.01662 z m 29.65178,-0.56123 V 78.58158 h -0.98215 -0.98215 v 3.531067 3.531081 h 0.98215 0.98215 z m 4.30262,-1.590152 v -5.12122 h -0.98215 -0.98215 l -8e-5,5.12122 -8e-5,5.121233 h 0.98209 0.98207 v -5.121292 z m 4.30292,1.590152 V 78.58158 h -0.98215 -0.98215 v 3.531067 3.531081 h 0.98215 0.98215 z m -8.60554,-5.495372 V 75.77543 h -0.98215 -0.98215 v 0.841845 0.841845 h 0.98215 0.98215 z m 8.60554,0 V 75.77543 h -0.98215 -0.98215 v 0.841845 0.841845 h 0.98215 0.98215 z m -37.81641,-6.94667 c 8.81114,-5.846732 22.77532,-7.977312 35.36383,-5.395638 5.1371,1.053542 10.22153,3.094489 13.95493,5.601692 1.26863,0.851963 0.56881,0.193274 -0.97929,-0.921704 -3.46634,-2.496563 -7.69111,-4.376489 -12.53413,-5.577358 -5.46789,-1.355813 -11.50676,-1.693493 -17.35138,-0.970254 -7.20804,0.891967 -13.94586,3.489535 -18.66184,7.194537 -1.27338,1.000397 -1.22184,1.017429 0.20788,0.06869 z"
       id="path1720"
       inkscape:connector-curvature="0" />
    <path
       style="fill:#7d7d7d;fill-opacity:1;fill-rule:evenodd;stroke:none;stroke-width:1.64787;stroke-linecap:square;stroke-dasharray:4.94362, 4.94362"
       d="m 243.25,471 v -17.25 h 5.5 5.5 v 7 7 h 7 7 v -7 -7 h 5.75 5.75 V 471 488.25 H 274 268.25 v -7 -7 h -7 -7 v 7 7 h -5.5 -5.5 z"
       id="path1365"
       transform="scale(0.26458333)" />
    <path
       style="fill:#7d7d7d;fill-opacity:1;fill-rule:evenodd;stroke:none;stroke-width:1.64787;stroke-linecap:square;stroke-dasharray:4.94362, 4.94362"
       d="m 290.5,487.81727 c -1.1,-0.19987 -2.596,-0.75773 -3.32444,-1.23971 -2.43105,-1.6085 -2.67556,-3.06294 -2.67556,-15.91554 0,-11.22811 0.0539,-11.91074 1.04597,-13.25 0.57529,-0.77661 1.78981,-1.91827 2.69895,-2.53702 1.60585,-1.09293 2.01092,-1.125 14.21182,-1.125 14.01474,0 14.90296,0.18106 17.16826,3.49975 1.09011,1.59701 1.12494,2.02192 1.12313,13.69919 -0.002,11.06301 -0.0817,12.18207 -0.97613,13.64889 -1.99621,3.27389 -2.44681,3.37527 -15.48749,3.4843 -6.48148,0.0542 -12.68451,-0.065 -13.78451,-0.26486 z m 18.2042,-6.82044 c 0.27618,-0.27675 0.65821,-4.69453 0.84896,-9.81729 0.41925,-11.25998 0.96397,-10.5275 -7.67499,-10.32043 L 296,461 v 9.97746 9.97746 l 1.25,0.36972 c 1.79199,0.53003 10.85701,0.2706 11.4542,-0.32781 z"
       id="path1367"
       transform="scale(0.26458333)" />
    <path
       style="fill:#7d7d7d;fill-opacity:1;fill-rule:evenodd;stroke:none;stroke-width:1.64787;stroke-linecap:square;stroke-dasharray:4.94362, 4.94362"
       d="m 325.75,485.10439 v -3.19826 l 7.5795,-0.32806 c 4.16872,-0.18044 9.52372,-0.32807 11.9,-0.32807 2.69372,0 4.54642,-0.22591 4.9205,-0.6 0.33,-0.33 0.6,-1.67208 0.6,-2.98241 0,-1.84369 -0.21869,-2.49944 -0.96713,-2.9 -0.56498,-0.30236 -4.77515,-0.51896 -10.125,-0.52088 -8.12881,-0.003 -9.31848,-0.10919 -10.58722,-0.94565 -2.78601,-1.83678 -3.31392,-3.27794 -3.31549,-9.05106 -0.002,-6.13532 0.7011,-7.81966 3.95531,-9.47983 1.88365,-0.96097 2.88579,-1.02017 17.26961,-1.02017 H 362.25 v 3.1777 3.1777 l -3.375,0.31874 c -1.85625,0.17532 -7.36083,0.32035 -12.23241,0.32231 -8.24334,0.003 -8.89329,0.0706 -9.375,0.97068 -0.73318,1.36997 -0.64135,3.67245 0.19194,4.81231 0.64743,0.88562 1.55547,0.99358 10.375,1.23352 10.40885,0.28318 11.10786,0.44848 12.97309,3.06796 0.9924,1.3937 1.13106,2.21574 1.15977,6.87601 0.0372,6.04306 -0.63261,7.92404 -3.35085,9.40961 -1.4291,0.78102 -3.42832,0.90101 -17.24154,1.03479 l -15.625,0.15132 z"
       id="path1369"
       transform="scale(0.26458333)" />
    <path
       style="fill:#7d7d7d;fill-opacity:1;fill-rule:evenodd;stroke:none;stroke-width:1.64787;stroke-linecap:square;stroke-dasharray:4.94362, 4.94362"
       d="M 379.25,474.5 V 460.75 H 373 366.75 v -3.5 -3.5 H 385 403.25 v 3.5 3.5 H 397 390.75 v 13.75 13.75 H 385 379.25 Z"
       id="path1371"
       transform="scale(0.26458333)" />
    <path
       style="fill:#7d7d7d;fill-opacity:1;fill-rule:evenodd;stroke:none;stroke-width:0.411968;stroke-linecap:square;stroke-dasharray:1.23591, 1.23591"
       d="m 564.79825,441.62548 c -9.97073,-6.58553 -24.00228,-12.01744 -37.73575,-14.6083 -8.37537,-1.58004 -15.5084,-2.28125 -24.5625,-2.41461 -25.35505,-0.37347 -48.84148,5.57824 -66.0423,16.73582 -1.05451,0.68403 -1.94221,1.21877 -1.97267,1.18831 -0.0865,-0.0865 3.32516,-2.67392 5.26497,-3.99297 12.61017,-8.57477 29.6858,-14.41004 47.4375,-16.21085 5.09193,-0.51655 6.42282,-0.57295 13.4375,-0.56941 7.18291,0.004 8.81012,0.083 14.1744,0.69158 17.29175,1.96174 33.21673,7.44144 45.7006,15.72534 1.60371,1.06417 6.0625,4.34278 6.0625,4.45784 0,0.13781 -0.26821,-0.0146 -1.76425,-1.00275 z"
       id="path1373"
       transform="scale(0.26458333)" />
    <path
       style="fill:#7d7d7d;fill-opacity:1;fill-rule:evenodd;stroke:#7d7d7d;stroke-width:0.411968;stroke-linecap:square;stroke-dasharray:none;stroke-opacity:1"
       d="m 430.9375,470.875 v -12.5625 h 3.48915 3.48915 l 0.6856,2.03125 c 0.37708,1.11719 1.58233,4.70313 2.67833,7.96875 1.89921,5.65883 2.12197,7.25 2.12197,7.25 l 5.2738,-17.1875 4.55732,-0.0334 3.07968,-0.0334 v 12.56469 12.56468 h -2.5 -2.5 l -6.2e-4,-7.46875 c -5.1e-4,-7.4585 -0.0729,-10.28125 -0.26366,-10.28125 -1.9017,5.42293 -3.87621,10.82057 -5.75922,16.25 h -2.09961 -2.0996 l -0.64654,-1.84375 c -0.35559,-1.01406 -1.31783,-3.86875 -2.1383,-6.34375 -1.71903,-5.18555 -1.63411,-4.93844 -2.51101,-7.30622 l -0.66894,-1.80622 -0.032,9.39997 -0.032,9.39997 h -2.06171 -2.06171 z"
       id="path1375"
       transform="scale(0.26458333)"
       sodipodi:nodetypes="ccccssccccccccsccccssscccccc" />
    <path
       style="fill:#7d7d7d;fill-opacity:1;fill-rule:evenodd;stroke:#7d7d7d;stroke-width:0.411968;stroke-linecap:square;stroke-dasharray:none;stroke-opacity:1"
       d="m 468.51997,483.81424 c -4.1073,-0.74157 -6.64854,-3.18509 -7.41175,-7.12674 -0.40038,-2.06785 -0.16857,-5.21263 0.50673,-6.87412 1.06064,-2.60957 3.85563,-4.7858 6.60298,-5.1412 1.22627,-0.15863 4.06932,-0.0465 5.28858,0.20863 2.85181,0.59668 5.24998,3.0665 6.20971,6.39526 0.39771,1.3794 0.39226,4.36774 -0.0107,5.84893 -0.92809,3.41178 -3.0551,5.57629 -6.33781,6.44954 -1.11039,0.29538 -3.80217,0.42848 -4.84777,0.2397 z m 3.02009,-3.23958 c 0.60195,-0.0856 0.74246,-0.17199 1.48053,-0.91006 0.76295,-0.76296 0.83157,-0.87902 1.06559,-1.80253 0.33368,-1.31677 0.46906,-6.29869 0.18477,-6.79957 -0.0976,-0.17187 -0.3778,-0.70625 -0.62277,-1.1875 -0.54412,-1.06893 -1.25507,-1.79134 -1.91318,-1.94401 -0.79415,-0.18425 -2.50041,-0.14151 -3.02026,0.0756 -0.59221,0.24738 -1.07428,0.71037 -1.48582,1.427 -0.17889,0.3115 -0.43918,0.69212 -0.57843,0.84582 -0.13925,0.1537 -0.26354,0.43495 -0.27621,0.625 -0.0127,0.19005 -0.0938,0.76278 -0.18028,1.27273 -0.0965,0.56882 -0.13971,1.65585 -0.11187,2.8125 l 0.0454,1.88532 0.581,1.18941 c 0.39808,0.81492 0.78502,1.39341 1.22897,1.83737 0.5647,0.56469 0.72279,0.65392 1.23024,0.69431 1.02469,0.0816 1.69047,0.0756 2.37233,-0.0214 z"
       id="path1377"
       transform="scale(0.26458333)" />
    <path
       style="fill:#7d7d7d;fill-opacity:1;fill-rule:evenodd;stroke:#7d7d7d;stroke-width:0.411968;stroke-linecap:square;stroke-dasharray:none;stroke-opacity:1"
       d="m 493.78292,483.8084 c -1.44945,-0.24406 -2.40986,-0.69732 -3.39405,-1.60179 -0.70119,-0.64441 -0.70475,-0.64281 -1.22025,0.54824 l -0.29362,0.67839 -2.09375,0.002 -2.09375,0.002 v -13.375 -13.375 h 2.5 2.5 l 0.002,5.40625 c 10e-4,3.40577 0.0483,5.47563 0.12735,5.59375 0.10486,0.15672 0.16961,0.12594 0.39445,-0.1875 0.14795,-0.20625 0.61289,-0.7175 1.0332,-1.13611 2.04939,-2.04108 5.08195,-2.44726 7.82466,-1.04803 1.15627,0.58988 2.62964,2.3074 3.14973,3.67166 0.73176,1.91953 0.95491,5.41705 0.48739,7.6391 -0.66921,3.18064 -2.45474,5.7617 -4.6437,6.71267 -1.17092,0.50869 -2.91144,0.69948 -4.27958,0.46911 z m 2.52816,-3.96766 c 1.06915,-0.80612 2.24066,-2.24227 2.06325,-2.52933 -0.0404,-0.0653 -0.007,-0.24242 0.0737,-0.39359 0.1967,-0.36753 0.48749,-2.3498 0.48859,-3.33064 0.002,-1.71686 -0.82672,-4.0333 -1.70043,-4.75349 -1.23197,-1.01549 -3.16276,-0.78771 -4.87666,0.57532 -0.38855,0.30901 -0.75729,0.74666 -0.9375,1.11267 -0.28438,0.57764 -0.29888,0.73635 -0.34049,3.72832 -0.0515,3.70027 0.0248,4.22245 0.70687,4.83782 0.60055,0.54187 1.3271,0.98634 1.81887,1.11271 0.216,0.0555 0.81396,0.0717 1.3288,0.036 0.75704,-0.0525 1.02003,-0.12818 1.375,-0.39582 z"
       id="path1379"
       transform="scale(0.26458333)" />
    <path
       style="fill:#7d7d7d;fill-opacity:1;fill-rule:evenodd;stroke:#7d7d7d;stroke-width:0.411968;stroke-linecap:square;stroke-dasharray:none;stroke-opacity:1"
       d="m 507.6875,474.125 v -9.1875 h 2.5 2.5 v 9.1875 9.1875 h -2.5 -2.5 z"
       id="path1381"
       transform="scale(0.26458333)" />
    <path
       style="fill:#7d7d7d;fill-opacity:1;fill-rule:evenodd;stroke:#7d7d7d;stroke-width:0.411968;stroke-linecap:square;stroke-dasharray:none;stroke-opacity:1"
       d="m 507.6875,459.75 v -2.1875 h 2.5 2.5 v 2.1875 2.1875 h -2.5 -2.5 z"
       id="path1383"
       transform="scale(0.26458333)" />
    <path
       style="fill:#7d7d7d;fill-opacity:1;fill-rule:evenodd;stroke:#7d7d7d;stroke-width:0.411968;stroke-linecap:square;stroke-dasharray:none;stroke-opacity:1"
       d="m 518.9375,470 v -13.3125 h 2.5 2.5 V 470 483.3125 h -2.5 -2.5 z"
       id="path1385"
       transform="scale(0.26458333)" />
    <path
       style="fill:#7d7d7d;fill-opacity:1;fill-rule:evenodd;stroke:#7d7d7d;stroke-width:0.411968;stroke-linecap:square;stroke-dasharray:none;stroke-opacity:1"
       d="m 530.1875,474.125 v -9.1875 h 2.5 2.5 v 9.1875 9.1875 h -2.5 -2.5 z"
       id="path1389"
       transform="scale(0.26458333)" />
    <path
       style="fill:#7d7d7d;fill-opacity:1;fill-rule:evenodd;stroke:#7d7d7d;stroke-width:0.411968;stroke-linecap:square;stroke-dasharray:none;stroke-opacity:1"
       d="m 530.1875,459.75 v -2.1875 h 2.5 2.5 v 2.1875 2.1875 h -2.5 -2.5 z"
       id="path1391"
       transform="scale(0.26458333)" />
    <path
       style="fill:#7d7d7d;fill-opacity:1;fill-rule:evenodd;stroke:#7d7d7d;stroke-width:0.411968;stroke-linecap:square;stroke-dasharray:none;stroke-opacity:1"
       d="m 545.34558,483.50989 c -0.42868,-0.15928 -1.08269,-0.51856 -1.45334,-0.79841 -0.72737,-0.54916 -1.61585,-1.76203 -1.83285,-2.50201 -0.14347,-0.48924 -0.35587,-6.24779 -0.36587,-9.91922 l -0.006,-2.20976 -0.71875,-0.0792 c -0.39531,-0.0436 -0.80312,-0.0905 -0.90625,-0.10425 -0.15223,-0.0203 -0.19411,-0.30003 -0.22267,-1.48675 l -0.0352,-1.46169 0.91017,-0.0368 0.91017,-0.0368 0.0625,-1.55695 0.0625,-1.55696 2.25,-0.28012 c 1.2375,-0.15407 2.34844,-0.28313 2.46875,-0.2868 0.19891,-0.006 0.21875,0.16341 0.21875,1.86833 v 1.875 h 2.125 2.125 v 1.5625 1.5625 h -2.1414 -2.1414 l 0.0801,3.21875 c 0.0441,1.77031 0.11441,4.23125 0.15635,5.46875 l 0.0763,2.25 0.79313,0.79767 0.79313,0.79766 1.25441,-0.0889 1.25442,-0.0889 v 1.36112 c 0,0.93737 -0.0519,1.43213 -0.16676,1.58919 -0.2281,0.31194 -1.07056,0.42964 -3.08324,0.43076 -1.45823,7.5e-4 -1.79339,-0.0384 -2.46692,-0.28865 z"
       id="path1393"
       transform="scale(0.26458333)" />
    <path
       style="fill:#7d7d7d;fill-opacity:1;fill-rule:evenodd;stroke:#7d7d7d;stroke-width:0.411968;stroke-linecap:square;stroke-dasharray:none;stroke-opacity:1"
       d="m 560.07886,483.18985 c 0,0 -1.774,-4.01797 -3.62447,-9.00235 l -3.37554,-9.25033 2.00649,0.0149 c 1.1106,0.008 1.55806,0.007 1.55806,0.007 0.68133,0.0422 1.29296,1.94721 1.29296,1.94721 l 4.66941,11.12631 5.94553,-13.06353 2.74777,-0.009 c 0,0 1.57635,0.0117 1.24451,0.93986 -1.79112,3.73444 -8.6852,18.16369 -11.59991,24.33408 -0.98868,0.002 -3.31298,0.0151 -4.17033,0.0161 z"
       id="path1395"
       transform="scale(0.26458333)"
       sodipodi:nodetypes="cscsscccccccc" />
    <path
       style="fill:#7d7d7d;fill-opacity:1;fill-rule:evenodd;stroke:none;stroke-width:0.145653;stroke-linecap:square;stroke-dasharray:0.436959, 0.436959"
       d="m 417.46115,514.73719 c -0.0755,-0.0552 -0.0826,-0.24541 -0.12131,-3.25932 -0.0562,-4.37992 -0.10803,-25.06767 -0.11727,-46.85347 l -0.008,-18.10856 h 0.57463 0.57463 l -9.5e-4,11.17007 c -0.001,15.71072 -0.0777,44.62656 -0.13097,49.57482 -0.057,5.29771 -0.12491,7.1834 -0.26835,7.45142 -0.054,0.10097 -0.3769,0.11705 -0.50273,0.025 z"
       id="path1397"
       transform="scale(0.26458333)" />
    <path
       style="fill:#7d7d7d;fill-opacity:1;fill-rule:evenodd;stroke:none;stroke-width:0.145653;stroke-linecap:square;stroke-dasharray:0.436959, 0.436959"
       d="m 314.11009,524.7533 c -0.79107,-0.0201 -2.37635,-0.10037 -3.08254,-0.15611 l -0.67396,-0.0532 v -1.49757 -1.49756 l 0.25411,0.0265 c 0.3023,0.0315 2.14324,0.14057 3.414,0.20226 4.29724,0.20863 9.66371,0.19978 14.09794,-0.0232 13.7711,-0.69267 26.96397,-3.32762 38.64781,-7.71897 4.67589,-1.75743 9.43868,-3.98638 14.03165,-6.56671 1.73635,-0.97548 2.74738,-1.59088 4.77297,-2.90523 1.34859,-0.87506 1.93802,-1.23515 1.96981,-1.20337 0.0435,0.0435 -1.03769,0.92689 -2.56643,2.09692 -12.89771,9.8713 -30.29588,16.37102 -50.072,18.70621 -2.60581,0.3077 -5.35233,0.45463 -10.78338,0.57687 -1.65293,0.0372 -8.69877,0.0465 -10.00998,0.0132 z"
       id="path1399"
       transform="scale(0.26458333)" />
    <path
       style="fill:#7d7d7d;fill-opacity:1;fill-rule:evenodd;stroke:none;stroke-width:0.291306;stroke-linecap:square;stroke-dasharray:0.873917, 0.873917"
       d="m 417.48026,446.43219 -0.24306,-0.0386 v -10.33557 -10.33556 h 0.57452 0.57453 v 10.34143 c 0,9.78961 -0.008,10.34151 -0.15468,10.34265 -0.0851,7.1e-4 -0.23423,0.0154 -0.33146,0.0327 -0.0972,0.0173 -0.28616,0.0141 -0.41985,-0.007 z"
       id="path1401"
       transform="scale(0.26458333)" />
    <path
       style="fill:#7d7d7d;fill-opacity:1;fill-rule:evenodd;stroke:none;stroke-width:0.291306;stroke-linecap:square;stroke-dasharray:0.873917, 0.873917"
       d="m 308.56372,524.34967 c -17.43193,-1.77071 -33.82683,-7.06335 -46.18291,-14.90887 -2.4431,-1.55126 -5.87022,-3.98048 -7.53772,-5.34292 -0.47543,-0.38845 -0.84696,-0.72371 -0.82564,-0.74504 0.0213,-0.0213 0.94726,0.55557 2.05765,1.28197 4.98868,3.26357 9.17779,5.49005 14.7468,7.83782 11.34636,4.78337 24.76406,7.95581 38.00699,8.98625 l 1.41421,0.11004 -0.007,1.4417 c -0.004,0.79293 -0.0239,1.45496 -0.0442,1.47117 -0.0202,0.0162 -0.75275,-0.0432 -1.6278,-0.13212 z"
       id="path1403"
       transform="scale(0.26458333)" />
    <path
       style="fill:#000000;fill-opacity:0;fill-rule:evenodd;stroke:none;stroke-width:0.823937;stroke-linecap:square;stroke-dasharray:2.47181, 2.47181"
       d="m 246.875,487.75 c 0,-0.28788 -0.31944,-0.375 -1.375,-0.375 h -1.375 v -1.125 c 0,-0.83333 -0.0972,-1.125 -0.375,-1.125 -0.29167,0 -0.375,-0.33333 -0.375,-1.5 0,-1.16667 0.0833,-1.5 0.375,-1.5 0.31482,0 0.375,-0.54167 0.375,-3.375 0,-2.83333 -0.0602,-3.375 -0.375,-3.375 -0.29487,0 -0.375,-0.34722 -0.375,-1.625 0,-1.27778 0.0801,-1.625 0.375,-1.625 0.31548,0 0.375,-0.55555 0.375,-3.5 0,-2.94444 -0.0595,-3.5 -0.375,-3.5 -0.29167,0 -0.375,-0.33333 -0.375,-1.5 0,-1.16667 0.0833,-1.5 0.375,-1.5 0.31548,0 0.375,-0.55555 0.375,-3.5 0,-2.94444 -0.0595,-3.5 -0.375,-3.5 -0.23333,0 -0.375,-0.23611 -0.375,-0.625 0,-0.52778 0.11667,-0.625 0.75,-0.625 0.5,0 0.75,0.125 0.75,0.375 0,0.31482 0.54167,0.375 3.375,0.375 2.83333,0 3.375,-0.0602 3.375,-0.375 0,-0.2894 0.29961,-0.36838 1.3125,-0.346 0.72188,0.0159 1.11563,0.0804 0.875,0.14333 -0.39025,0.10199 -0.4375,0.49035 -0.4375,3.596 0,2.92815 0.0596,3.48167 0.375,3.48167 0.29167,0 0.375,0.33333 0.375,1.5 0,1.16667 -0.0833,1.5 -0.375,1.5 -0.30555,0 -0.375,0.41667 -0.375,2.25 v 2.25 h 2 c 1.61111,0 2,-0.0729 2,-0.375 0,-0.29167 0.33333,-0.375 1.5,-0.375 1.16667,0 1.5,0.0833 1.5,0.375 0,0.31548 0.55556,0.375 3.5,0.375 2.94445,0 3.5,-0.0595 3.5,-0.375 0,-0.20833 0.22222,-0.375 0.5,-0.375 0.42593,0 0.5,-0.16667 0.5,-1.125 0,-0.83333 0.0972,-1.125 0.375,-1.125 0.31482,0 0.375,-0.54167 0.375,-3.375 0,-2.83333 -0.0602,-3.375 -0.375,-3.375 -0.29487,0 -0.375,-0.34722 -0.375,-1.625 0,-1.27778 0.0801,-1.625 0.375,-1.625 0.20833,0 0.375,-0.22222 0.375,-0.5 0,-0.45833 0.16667,-0.5 2,-0.5 1.61111,0 2,-0.0729 2,-0.375 0,-0.29167 0.33333,-0.375 1.5,-0.375 1.16667,0 1.5,0.0833 1.5,0.375 0,0.28788 0.31945,0.375 1.375,0.375 h 1.375 v 1.125 c 0,0.83333 0.0972,1.125 0.375,1.125 0.29487,0 0.375,0.34722 0.375,1.625 0,1.27778 -0.0801,1.625 -0.375,1.625 -0.31481,0 -0.375,0.54167 -0.375,3.375 0,2.83333 0.0602,3.375 0.375,3.375 0.29167,0 0.375,0.33333 0.375,1.5 0,1.16667 -0.0833,1.5 -0.375,1.5 -0.31547,0 -0.375,0.55556 -0.375,3.5 0,2.94445 0.0595,3.5 0.375,3.5 0.29167,0 0.375,0.33333 0.375,1.5 0,1.16667 -0.0833,1.5 -0.375,1.5 -0.31481,0 -0.375,0.54167 -0.375,3.375 0,2.83333 0.0602,3.375 0.375,3.375 0.25,0 0.375,0.25 0.375,0.75 0,0.63333 -0.0972,0.75 -0.625,0.75 -0.38889,0 -0.625,-0.14167 -0.625,-0.375 0,-0.31547 -0.55555,-0.375 -3.5,-0.375 -2.94444,0 -3.5,0.0595 -3.5,0.375 0,0.27778 -0.29167,0.375 -1.125,0.375 h -1.125 v -3.25 c 0,-2.72222 -0.0609,-3.25 -0.375,-3.25 -0.29167,0 -0.375,-0.33333 -0.375,-1.5 0,-1.16667 0.0833,-1.5 0.375,-1.5 0.30953,0 0.375,-0.45833 0.375,-2.625 v -2.625 h -1.75 c -1.38889,0 -1.75,0.0774 -1.75,0.375 0,0.29167 -0.33333,0.375 -1.5,0.375 -1.16667,0 -1.5,-0.0833 -1.5,-0.375 0,-0.31481 -0.54167,-0.375 -3.375,-0.375 -2.83333,0 -3.375,0.0602 -3.375,0.375 0,0.26191 -0.26389,0.375 -0.875,0.375 -0.79836,0 -0.875,0.0634 -0.875,0.72325 0,0.41227 -0.16124,0.78513 -0.375,0.86716 -0.30777,0.1181 -0.375,0.75039 -0.375,3.52675 0,2.8403 0.0601,3.38284 0.375,3.38284 0.29167,0 0.375,0.33333 0.375,1.5 0,1.16667 -0.0833,1.5 -0.375,1.5 -0.2619,0 -0.375,0.26389 -0.375,0.875 v 0.875 h -1.625 c -1.27778,0 -1.625,0.0801 -1.625,0.375 0,0.29487 -0.34722,0.375 -1.625,0.375 -1.27778,0 -1.625,-0.0801 -1.625,-0.375 z"
       id="path1474"
       transform="scale(0.26458333)" />
  </g>
</svg>
